<svg width="117" height="34" viewBox="0 0 117 34" fill="none" xmlns="http://www.w3.org/2000/svg">
<g clip-path="url(#clip0_20708_11711)">
<path d="M13.3332 5.45508V14.7502H4.79367V5.45508H0.742188V27.6439H4.79477V18.6504H13.3321V27.6439H17.3857V5.45508H13.3332ZM30.3573 20.4721C30.3573 21.3615 30.004 22.2144 29.3751 22.8433C28.7462 23.4722 27.8933 23.8255 27.0039 23.8255C26.1145 23.8255 25.2616 23.4722 24.6327 22.8433C24.0038 22.2144 23.6505 21.3615 23.6505 20.4721V10.9675H19.8063V20.4721C19.8063 22.3791 20.5639 24.2081 21.9124 25.5565C23.2608 26.905 25.0897 27.6626 26.9968 27.6626C28.9038 27.6626 30.7327 26.905 32.0812 25.5565C33.4297 24.2081 34.1872 22.3791 34.1872 20.4721V10.9675H30.3573V20.4721ZM58.8416 11.9469C58.8416 9.99792 60.1303 9.38043 61.5419 9.38043C62.6803 9.38043 64.1829 10.2469 65.1667 11.2976L67.6838 8.32972C66.4269 6.62972 63.878 5.45508 61.7908 5.45508C57.6198 5.45508 54.6037 7.89759 54.6037 11.9469C54.6037 19.4598 63.7859 17.0754 63.7859 21.2804C63.7859 22.5768 62.5268 23.7219 61.0856 23.7219C58.812 23.7219 58.075 22.6108 57.0308 21.4351L54.2363 24.3404C56.024 26.534 58.2285 27.6483 60.8684 27.6483C64.8311 27.6483 68.0183 25.1762 68.0183 21.3111C68.0183 12.9713 58.835 15.5629 58.835 11.9469M115.648 24.0991C113.377 24.0991 112.731 23.1164 112.731 21.6117V14.9488H116.262V11.5729H112.731V7.11888L108.833 8.86824V22.4397C108.833 25.911 111.228 27.6604 114.512 27.6604C115.027 27.6691 115.543 27.6275 116.049 27.5375L117 24.0366C116.571 24.0662 116.079 24.0959 115.648 24.0959M44.9904 11.0782C43.0864 11.0782 41.7572 11.631 40.4717 12.8912V5.58779H36.6221V19.1253C36.6221 24.1924 40.2853 27.6648 44.4026 27.6648C48.9695 27.6648 52.987 24.1309 52.987 19.3731C52.987 14.6746 49.2898 11.0815 44.9904 11.0815M44.9663 23.7899C44.3926 23.7899 43.8244 23.6768 43.2944 23.4573C42.7643 23.2377 42.2827 22.9159 41.877 22.5102C41.4713 22.1045 41.1495 21.6229 40.9299 21.0928C40.7103 20.5627 40.5973 19.9946 40.5973 19.4209C40.5973 18.8471 40.7103 18.279 40.9299 17.7489C41.1495 17.2188 41.4713 16.7372 41.877 16.3315C42.2827 15.9258 42.7643 15.604 43.2944 15.3844C43.8244 15.1649 44.3926 15.0519 44.9663 15.0519C46.125 15.0519 47.2363 15.5122 48.0557 16.3315C48.875 17.1508 49.3353 18.2621 49.3353 19.4209C49.3353 20.5796 48.875 21.6909 48.0557 22.5102C47.2363 23.3295 46.125 23.7899 44.9663 23.7899ZM86.7995 19.1713C86.7995 14.4048 82.7908 10.8797 78.215 10.8797C74.0988 10.8797 70.4345 14.351 70.4345 19.4192V32.9644H74.2842V25.6511C75.5674 26.9091 76.8989 27.464 78.8007 27.464C83.1001 27.464 86.7995 23.871 86.7995 19.1713ZM83.1538 19.1231C83.1538 20.2818 82.6935 21.3931 81.8742 22.2124C81.0548 23.0318 79.9435 23.4921 78.7848 23.4921C77.6261 23.4921 76.5148 23.0318 75.6954 22.2124C74.8761 21.3931 74.4158 20.2818 74.4158 19.1231C74.4158 17.9643 74.8761 16.8531 75.6954 16.0337C76.5148 15.2144 77.6261 14.7541 78.7848 14.7541C79.9435 14.7541 81.0548 15.2144 81.8742 16.0337C82.6935 16.8531 83.1538 17.9643 83.1538 19.1231Z" fill="#33475B"/>
<path d="M99.2382 10.6938V6.82547C99.7494 6.58655 100.182 6.20737 100.486 5.73205C100.79 5.25672 100.953 4.70482 100.956 4.14056V4.05172C100.956 2.40656 99.6221 1.07288 97.9769 1.07288H97.8881C97.098 1.07288 96.3403 1.38673 95.7817 1.94537C95.2231 2.50401 94.9092 3.26169 94.9092 4.05172V4.14056C94.9118 4.70482 95.0746 5.25672 95.3787 5.73205C95.6828 6.20737 96.1156 6.58655 96.6268 6.82547V10.6938C95.1576 10.9187 93.7739 11.5279 92.6159 12.4596L82.0068 4.1965C82.0824 3.9234 82.1219 3.64263 82.1263 3.36076C82.1276 2.69688 81.932 2.04754 81.5642 1.49486C81.1964 0.942176 80.673 0.510987 80.0601 0.255832C79.4472 0.000676841 78.7724 -0.0669808 78.1211 0.0614169C77.4698 0.189815 76.8711 0.508499 76.4009 0.97716C75.9307 1.44582 75.6101 2.0434 75.4796 2.69432C75.349 3.34523 75.4145 4.02024 75.6677 4.63395C75.9208 5.24766 76.3503 5.77251 76.9017 6.1421C77.4532 6.5117 78.1019 6.70943 78.7658 6.7103C79.3466 6.70757 79.9165 6.55252 80.4186 6.26063L90.8654 14.3899C89.9269 15.8077 89.4373 17.4753 89.4604 19.1754C89.4835 20.8754 90.0182 22.5291 90.9948 23.9209L87.8175 27.0993C87.5606 27.0172 87.293 26.9736 87.0234 26.9699C86.4785 26.9704 85.9459 27.1323 85.493 27.4353C85.0401 27.7384 84.6871 28.1688 84.4788 28.6724C84.2705 29.1759 84.2161 29.7299 84.3225 30.2644C84.4289 30.7988 84.6914 31.2897 85.0767 31.675C85.462 32.0604 85.9529 32.3228 86.4874 32.4292C87.0218 32.5357 87.5758 32.4813 88.0793 32.2729C88.5829 32.0646 89.0134 31.7117 89.3164 31.2587C89.6194 30.8058 89.7814 30.2732 89.7818 29.7283C89.7783 29.4587 89.7346 29.191 89.6524 28.9342L92.7957 25.7898C93.8208 26.5789 95.0128 27.123 96.2806 27.3802C97.5483 27.6375 98.8582 27.6012 100.11 27.274C101.361 26.9469 102.521 26.3376 103.501 25.4929C104.481 24.6482 105.254 23.5904 105.762 22.4006C106.27 21.2108 106.498 19.9206 106.43 18.6288C106.363 17.3369 106 16.0778 105.37 14.9478C104.74 13.8178 103.86 12.8469 102.798 12.1096C101.735 11.3722 100.517 10.8879 99.2382 10.6938ZM97.9352 23.4164C97.3543 23.4324 96.7761 23.3317 96.2347 23.1205C95.6933 22.9092 95.1997 22.5916 94.7832 22.1863C94.3667 21.7811 94.0356 21.2964 93.8095 20.7611C93.5834 20.2257 93.4669 19.6505 93.4669 19.0693C93.4669 18.4882 93.5834 17.9129 93.8095 17.3775C94.0356 16.8422 94.3667 16.3575 94.7832 15.9523C95.1997 15.5471 95.6933 15.2294 96.2347 15.0181C96.7761 14.8069 97.3543 14.7063 97.9352 14.7222C99.0611 14.7617 100.128 15.2365 100.911 16.0468C101.693 16.857 102.131 17.9395 102.132 19.0661C102.132 20.1927 101.696 21.2756 100.914 22.0866C100.132 22.8977 99.0655 23.3736 97.9396 23.4142" fill="#FF7A59"/>
</g>
<defs>
<clipPath id="clip0_20708_11711">
<rect width="116.258" height="34" fill="white" transform="translate(0.742188)"/>
</clipPath>
</defs>
</svg>
