<svg width="223" height="28" viewBox="0 0 223 28" fill="none" xmlns="http://www.w3.org/2000/svg">
<g clip-path="url(#clip0_20708_11831)">
<path d="M62.352 9.85607C61.0334 8.57219 59.2984 7.9129 57.1818 7.9129C54.7875 7.9129 52.9138 8.84979 51.5952 10.6888V1.59766H47.8477V25.8871H51.5952V16.9C51.5952 15.1303 52.0115 13.7424 52.8443 12.7014C53.6772 11.6604 54.8569 11.1399 56.3489 11.1399C57.7369 11.1399 58.778 11.591 59.5066 12.4585C60.2352 13.3607 60.6169 14.6445 60.6169 16.3102V25.8871H64.3644V16.1019C64.3644 13.2566 63.6704 11.1746 62.352 9.85607Z" fill="#111111"/>
<path d="M83.3511 8.12109H79.6036V16.9346C79.6036 18.7737 79.1871 20.2311 78.3891 21.2722C77.5563 22.3131 76.4459 22.8335 75.0233 22.8335C73.6353 22.8335 72.6289 22.3825 71.9349 21.4803C71.2411 20.5782 70.894 19.2595 70.894 17.5246V8.12109H67.1465V17.9063C67.1465 20.7863 67.7711 22.8683 69.0897 24.1522C70.3736 25.4706 72.0739 26.0952 74.1557 26.0952C76.4459 26.0952 78.2849 25.2972 79.6382 23.6317L80.0546 25.8871H83.3511V8.12109Z" fill="#111111"/>
<path d="M89.683 20.0227H86.0742C86.109 21.9311 86.8724 23.4231 88.3296 24.4988C89.787 25.5745 91.7302 26.095 94.1244 26.095C95.5124 26.095 96.7962 25.8868 97.9413 25.4357C99.0518 24.9847 99.9539 24.3254 100.613 23.4925C101.238 22.6597 101.585 21.6536 101.585 20.5431C101.585 19.294 101.273 18.3223 100.648 17.5937C100.023 16.865 99.1905 16.3445 98.1496 15.9976C97.1085 15.6505 95.8247 15.4077 94.2979 15.2342C93.1528 15.0954 92.3201 14.9913 91.8342 14.8872C91.3138 14.7831 90.8974 14.6096 90.5504 14.332C90.2034 14.0544 90.0647 13.6727 90.0647 13.1175C90.0647 12.4235 90.377 11.8336 91.0708 11.4173C91.7302 11.0009 92.5976 10.7927 93.7081 10.7927C94.7838 10.7927 95.6859 11.0703 96.4145 11.5907C97.1085 12.1112 97.525 12.7705 97.629 13.5686H101.273C101.134 11.7642 100.37 10.3763 98.9824 9.36999C97.5944 8.39842 95.7553 7.87793 93.5345 7.87793C92.1465 7.87793 90.9321 8.12082 89.8564 8.57191C88.7808 9.0577 87.9479 9.71699 87.3234 10.5498C86.6988 11.3825 86.4211 12.3541 86.4211 13.4298C86.4211 14.6096 86.6988 15.5117 87.3234 16.2057C87.9479 16.8997 88.7461 17.3856 89.7524 17.6977C90.7587 18.01 92.0425 18.253 93.6039 18.4265C94.7144 18.5653 95.5471 18.704 96.1022 18.8428C96.6574 18.9817 97.0739 19.1899 97.4208 19.4674C97.7331 19.7797 97.9067 20.2308 97.9067 20.8208C97.9067 21.5494 97.525 22.1393 96.831 22.5557C96.137 22.972 95.2001 23.1803 94.0898 23.1803C92.8059 23.1803 91.7648 22.9027 90.9668 22.3128C90.1687 21.723 89.7524 20.9596 89.683 20.0227Z" fill="#111111"/>
<path d="M105.422 11.4166V21.0629C105.422 22.7285 105.804 23.9431 106.567 24.7065C107.331 25.5045 108.58 25.8862 110.28 25.8862H113.889V22.5897H111.043C110.35 22.5897 109.898 22.4509 109.621 22.1734C109.343 21.8957 109.204 21.3752 109.204 20.6812V11.4166H113.472V8.12019H109.204V3.1582H105.422V8.12019H102.334V11.4166H105.422Z" fill="#111111"/>
<path d="M116.592 1.59766V25.8871H120.339V1.59766H116.592Z" fill="#111111"/>
<path d="M124.081 12.2505C123.353 13.6385 123.006 15.2346 123.006 17.039C123.006 18.8433 123.353 20.4396 124.116 21.7928C124.88 23.1808 125.92 24.2217 127.308 24.9851C128.696 25.7485 130.293 26.0954 132.166 26.0954C134.283 26.0954 136.053 25.5403 137.475 24.3605C138.898 23.2154 139.766 21.7234 140.112 19.919H136.365C136.087 20.9253 135.567 21.6887 134.804 22.2439C134.005 22.7991 133.034 23.0419 131.889 23.0419C130.431 23.0419 129.252 22.5908 128.384 21.6887C127.482 20.7865 126.996 19.572 126.927 18.0105V17.8023H140.321C140.39 17.3165 140.425 16.8654 140.425 16.3797C140.39 14.6794 140.008 13.1874 139.245 11.9035C138.482 10.6543 137.475 9.64805 136.157 8.95407C134.838 8.26009 133.346 7.91309 131.646 7.91309C129.946 7.91309 128.454 8.29478 127.135 9.05816C125.816 9.82155 124.81 10.8625 124.081 12.2505ZM136.608 15.0611H127.066C127.204 13.812 127.69 12.8404 128.592 12.077C129.494 11.3136 130.536 10.9319 131.785 10.9319C133.103 10.9319 134.179 11.3136 135.046 12.0423C135.914 12.771 136.434 13.7773 136.608 15.0611Z" fill="#111111"/>
<path d="M150.573 8.12199H147.484V11.4184H150.573V25.8877H154.355V11.4184H159.108V8.12199H154.355V6.62996C154.355 6.04006 154.459 5.58899 154.736 5.3114C155.015 5.0338 155.43 4.89502 156.055 4.89502H159.144V1.59863H155.535C153.834 1.59863 152.585 2.01502 151.787 2.81309C150.954 3.61116 150.573 4.79091 150.573 6.35236V8.12199Z" fill="#111111"/>
<path d="M177.949 8.12109H174.201V16.9345C174.201 18.7736 173.786 20.231 172.987 21.2719C172.155 22.3128 171.044 22.8333 169.621 22.8333C168.233 22.8333 167.227 22.3822 166.533 21.4801C165.84 20.5779 165.492 19.2593 165.492 17.5244V8.12109H161.744V17.9061C161.744 20.7861 162.369 22.8681 163.687 24.1519C164.972 25.4704 166.672 26.095 168.753 26.095C171.044 26.095 172.883 25.297 174.236 23.6315L174.652 25.8868H177.949V8.12109Z" fill="#111111"/>
<path d="M195.801 9.85621C194.483 8.57236 192.748 7.91309 190.666 7.91309C188.201 7.91309 186.294 8.78055 184.975 10.4461L184.558 8.12127H181.297V25.887H185.045V16.9347C185.045 15.1304 185.461 13.7425 186.294 12.7015C187.126 11.6605 188.306 11.1401 189.798 11.1401C191.186 11.1401 192.228 11.5911 192.955 12.4586C193.649 13.3608 194.031 14.6446 194.031 16.3101V25.887H197.814V16.1019C197.814 13.2567 197.12 11.1748 195.801 9.85621Z" fill="#111111"/>
<path d="M218.464 1.59863H214.717V10.5856C214.093 9.75283 213.328 9.12825 212.357 8.64248C211.385 8.15669 210.241 7.9138 208.957 7.9138C207.361 7.9138 205.904 8.29548 204.654 9.05886C203.37 9.82223 202.364 10.8632 201.636 12.2511C200.907 13.6391 200.561 15.2005 200.561 17.0048C200.561 18.8787 200.907 20.4747 201.636 21.8627C202.33 23.2507 203.336 24.2916 204.619 25.0202C205.868 25.749 207.327 26.0959 208.957 26.0959C211.385 26.0959 213.328 25.1591 214.751 23.2159L215.202 25.8877H218.464V1.59863ZM213.328 21.3074C212.357 22.4179 211.108 22.9384 209.582 22.9384C208.021 22.9384 206.771 22.4179 205.834 21.3074C204.862 20.1971 204.411 18.7745 204.411 17.0048C204.411 15.2699 204.862 13.882 205.834 12.7716C206.771 11.6613 208.021 11.1061 209.582 11.1061C211.108 11.1061 212.357 11.6613 213.328 12.7716C214.265 13.882 214.751 15.3046 214.751 17.0742C214.751 18.8091 214.265 20.2319 213.328 21.3074Z" fill="#111111"/>
<path fill-rule="evenodd" clip-rule="evenodd" d="M16.4434 15.2741L5.99055 25.7269C5.81591 25.9015 5.57903 25.9996 5.33205 25.9996C5.08506 25.9996 4.84818 25.9015 4.67354 25.7269L0.272762 21.3261C0.0981152 21.1515 -3.18481e-08 20.9145 0 20.6676C3.18482e-08 20.4205 0.0981163 20.1838 0.272763 20.009L5.85448 14.4274C6.02912 14.2527 6.12723 14.0158 6.12723 13.7689C6.12723 13.5219 6.02912 13.285 5.85448 13.1103L0.272765 7.52864C0.0981183 7.35399 1.74728e-06 7.11712 1.77912e-06 6.87013C1.81097e-06 6.62315 0.0981181 6.38627 0.272765 6.21162L4.67354 1.81086C4.84818 1.63619 5.08506 1.53809 5.33205 1.53809C5.57903 1.53809 5.81591 1.63621 5.99055 1.81086L16.4434 12.2636C16.8425 12.6629 17.0666 13.2043 17.0666 13.7689C17.0666 14.3334 16.8425 14.8748 16.4434 15.2741Z" fill="#ADA1ED"/>
<path fill-rule="evenodd" clip-rule="evenodd" d="M23.8398 15.2741L13.387 25.7269C13.2124 25.9015 12.9755 25.9996 12.7285 25.9996C12.4815 25.9996 12.2447 25.9015 12.07 25.7269L7.66924 21.3261C7.49459 21.1515 7.39648 20.9145 7.39648 20.6676C7.39648 20.4205 7.49461 20.1838 7.66925 20.009L13.251 14.4274C13.4256 14.2527 13.5237 14.0158 13.5237 13.7689C13.5237 13.5219 13.4256 13.285 13.251 13.1103L7.66925 7.52864C7.49461 7.35399 7.39648 7.11712 7.39648 6.87013C7.39648 6.62315 7.49461 6.38627 7.66925 6.21162L12.07 1.81086C12.2447 1.63619 12.4815 1.53809 12.7285 1.53809C12.9755 1.53809 13.2124 1.63621 13.387 1.81086L23.8398 12.2636C24.2389 12.6629 24.4631 13.2043 24.4631 13.7689C24.4631 14.3334 24.2389 14.8748 23.8398 15.2741Z" fill="#D75856"/>
<path fill-rule="evenodd" clip-rule="evenodd" d="M31.2364 15.2741L20.7835 25.7269C20.6089 25.9015 20.3719 25.9996 20.125 25.9996C19.8781 25.9996 19.6412 25.9015 19.4666 25.7269L15.0657 21.3261C14.8911 21.1515 14.793 20.9145 14.793 20.6676C14.793 20.4205 14.8911 20.1838 15.0657 20.009L20.6475 14.4274C20.8221 14.2527 20.9202 14.0158 20.9202 13.7689C20.9202 13.5219 20.8221 13.285 20.6475 13.1103L15.0657 7.52864C14.8911 7.35399 14.793 7.11712 14.793 6.87013C14.793 6.62315 14.8911 6.38627 15.0657 6.21162L19.4666 1.81086C19.6412 1.63619 19.8781 1.53809 20.125 1.53809C20.3719 1.53809 20.6089 1.63621 20.7835 1.81086L31.2364 12.2636C31.6355 12.6629 31.8596 13.2043 31.8596 13.7689C31.8596 14.3334 31.6355 14.8748 31.2364 15.2741Z" fill="#E88149"/>
<path fill-rule="evenodd" clip-rule="evenodd" d="M38.6328 15.2741L28.1801 25.7269C28.0053 25.9015 27.7685 25.9996 27.5215 25.9996C27.2745 25.9996 27.0376 25.9015 26.863 25.7269L22.4622 21.3261C22.2876 21.1515 22.1895 20.9145 22.1895 20.6676C22.1895 20.4205 22.2876 20.1838 22.4622 20.009L28.0439 14.4274C28.2185 14.2527 28.3167 14.0158 28.3167 13.7689C28.3167 13.5219 28.2185 13.285 28.0439 13.1103L22.4622 7.52864C22.2876 7.35399 22.1895 7.11712 22.1895 6.87013C22.1895 6.62315 22.2876 6.38627 22.4622 6.21162L26.863 1.81086C27.0376 1.63619 27.2745 1.53809 27.5215 1.53809C27.7685 1.53809 28.0055 1.63621 28.1801 1.81086L38.6328 12.2636C39.0319 12.6629 39.2561 13.2043 39.2561 13.7689C39.2561 14.3334 39.0319 14.8748 38.6328 15.2741Z" fill="#F4CA66"/>
</g>
<defs>
<clipPath id="clip0_20708_11831">
<rect width="222.769" height="28" fill="white"/>
</clipPath>
</defs>
</svg>
