<svg width="106" height="32" viewBox="0 0 106 32" fill="none" xmlns="http://www.w3.org/2000/svg">
<mask id="mask0_18963_11462" style="mask-type:luminance" maskUnits="userSpaceOnUse" x="0" y="0" width="105" height="32">
<path fill-rule="evenodd" clip-rule="evenodd" d="M0.0390625 0.148438H104.872V31.8506H0.0390625V0.148438Z" fill="white"/>
</mask>
<g mask="url(#mask0_18963_11462)">
<path fill-rule="evenodd" clip-rule="evenodd" d="M70.1993 29.7236C72.2197 29.7236 73.5663 26.8756 73.5663 22.6206C73.5663 18.2965 72.2197 15.5171 70.2316 15.5171C68.2754 15.5171 66.9288 18.3656 66.9288 22.6887C66.9288 26.9442 68.2435 29.7236 70.1993 29.7236ZM70.3598 13.3555C75.5224 13.3555 78.8894 17.0272 78.8894 22.4832C78.8894 28.0079 75.426 31.851 70.1992 31.851C65.1007 31.851 61.6055 28.1106 61.6055 22.62C61.6055 17.0613 65.1331 13.3555 70.3598 13.3555Z" fill="black"/>
<path fill-rule="evenodd" clip-rule="evenodd" d="M51.2089 29.7236C53.2293 29.7236 54.5759 26.8756 54.5759 22.6206C54.5759 18.2965 53.2293 15.5171 51.2413 15.5171C49.285 15.5171 47.9384 18.3656 47.9384 22.6887C47.9384 26.9442 49.2527 29.7236 51.2089 29.7236ZM51.3696 13.3555C56.5322 13.3555 59.8992 17.0272 59.8992 22.4832C59.8992 28.0079 56.4357 31.851 51.209 31.851C46.1105 31.851 42.6152 28.1106 42.6152 22.62C42.6152 17.0613 46.1428 13.3555 51.3696 13.3555Z" fill="black"/>
<path fill-rule="evenodd" clip-rule="evenodd" d="M31.9799 29.7251C30.0241 29.7251 28.7113 26.9437 28.7113 22.6897C28.7113 18.363 30.0555 15.514 32.0117 15.514C33.4717 15.514 34.5844 17.0144 35.0744 19.5248C35.2538 20.4332 35.3488 21.4768 35.3488 22.6221C35.3488 24.4838 35.0903 26.075 34.6316 27.2766L34.6263 27.2823C34.036 28.8281 33.1133 29.7251 31.9799 29.7251ZM40.9055 29.5499C40.32 29.5102 40.0567 29.217 40.0355 28.529L41.4588 3.63817C41.4959 2.94965 41.3743 2.24462 41.0213 1.66914C40.4522 0.749396 39.4818 0.247203 38.2273 0.162557C35.7019 -0.0124103 34.3891 1.60153 34.3312 2.50423C34.6317 2.0134 35.1376 2.04694 35.1376 2.04694C35.8129 2.09753 36.0603 2.47585 36.0024 3.41211L35.3962 13.9169C34.4209 13.5448 33.3295 13.3528 32.1435 13.3528C26.9138 13.3528 23.3867 17.0596 23.3867 22.6219C23.3867 28.1115 26.882 31.8518 31.98 31.8518C33.4983 31.8518 34.8637 31.5246 36.0396 30.9264C36.5349 31.2253 37.1358 31.3946 37.8212 31.44C40.3466 31.6093 41.6594 30.001 41.712 29.0988C41.4115 29.584 40.9055 29.5499 40.9055 29.5499Z" fill="black"/>
<path fill-rule="evenodd" clip-rule="evenodd" d="M97.9147 20.7671C96.3115 22.0027 93.3935 22.5859 93.3935 25.5372C93.3935 27.2528 94.3876 28.3165 95.4134 28.3165C96.5681 28.3165 97.7222 26.9782 97.9147 24.954V20.7671ZM103.237 20.0466V28.6251C103.237 29.5175 103.494 29.8608 104.135 29.8608C104.135 29.8608 104.616 29.8608 104.873 29.3802C104.873 30.238 103.719 31.851 101.313 31.851C99.582 31.851 98.3637 30.9926 98.0106 29.243C96.953 30.9586 95.221 31.851 93.2971 31.851C90.3473 31.851 88.0703 29.7921 88.0703 26.7036C88.0703 20.3898 97.4656 21.0762 97.6904 18.2277C97.0489 15.9635 95.3493 15.2084 94.227 15.2084C93.7784 15.2084 93.4577 15.3111 93.2971 15.4484C93.8421 15.9289 94.227 16.684 94.227 17.5418C94.227 18.9828 93.1046 20.1839 91.6939 20.1839C90.2831 20.1839 89.1608 18.9828 89.1608 17.4045C89.1608 15.0365 91.5656 13.3555 95.6059 13.3555C99.1971 13.3555 103.237 14.6933 103.237 20.0466Z" fill="black"/>
<path fill-rule="evenodd" clip-rule="evenodd" d="M86.5069 29.95C85.9224 29.9102 85.6591 29.6181 85.6359 28.9291L87.0573 4.0367C87.0968 3.3487 86.9733 2.64418 86.6188 2.06818C86.0541 1.14947 85.0832 0.646247 83.8253 0.56057C81.2995 0.388699 79.9871 2.00005 79.9336 2.9007C80.2326 2.41451 80.7376 2.44909 80.7376 2.44909C81.4114 2.4945 81.6593 2.87334 81.6038 3.81063L80.1878 28.3613C80.1482 29.0499 80.2712 29.7549 80.6257 30.3309C81.191 31.2496 82.1614 31.7528 83.4197 31.8385C85.9451 32.0104 87.2579 30.399 87.3114 29.4984C87.0119 29.9846 86.5069 29.95 86.5069 29.95Z" fill="black"/>
<path fill-rule="evenodd" clip-rule="evenodd" d="M15.4472 29.9488C14.8684 29.9091 14.6504 29.617 14.7343 28.9274L20.0122 4.02111C20.1579 3.33259 20.1434 2.62756 19.8786 2.05156C19.4556 1.13233 18.5634 0.628592 17.318 0.542914C14.8192 0.37156 13.257 1.98343 13.0641 2.88459C13.4384 2.3984 13.938 2.43246 13.938 2.43246C14.6046 2.4784 14.7941 2.85724 14.5935 3.79504L9.37397 28.3592C9.22783 29.0482 9.24182 29.7537 9.50708 30.3297C9.93007 31.2495 10.8223 31.7527 12.0672 31.8384C14.566 32.0103 16.1287 30.3979 16.3216 29.4967C15.9468 29.9834 15.4472 29.9488 15.4472 29.9488Z" fill="#F9C800"/>
<path fill-rule="evenodd" clip-rule="evenodd" d="M6.20499 29.9488C5.62622 29.9091 5.40822 29.617 5.49214 28.9274L10.77 4.02111C10.9157 3.33259 10.9012 2.62756 10.6364 2.05156C10.2134 1.13233 9.32117 0.628592 8.07585 0.542914C5.57702 0.37156 4.01483 1.98343 3.82191 2.88459C4.19618 2.3984 4.69585 2.43246 4.69585 2.43246C5.3624 2.4784 5.55194 2.85724 5.35082 3.79504L0.13178 28.3592C-0.0143587 29.0482 -0.000371765 29.7537 0.264897 30.3297C0.68788 31.2495 1.58015 31.7527 2.82498 31.8384C5.32381 32.0103 6.88649 30.3979 7.07941 29.4967C6.70466 29.9834 6.20499 29.9488 6.20499 29.9488Z" fill="#F9C800"/>
</g>
</svg>
