<svg width="169" height="34" viewBox="0 0 169 34" fill="none" xmlns="http://www.w3.org/2000/svg">
<g clip-path="url(#clip0_20708_11611)">
<path d="M0.480469 0H34.2634V34H0.480469V0Z" fill="#FF5A00"/>
<path d="M94.956 6.72754C95.2453 6.72754 95.3177 7.08924 95.3177 7.3786C95.39 8.53605 95.4624 9.62116 95.4624 10.7786C95.5347 11.8637 95.5347 12.9488 95.5347 14.0339C96.1858 13.5275 96.7645 13.0212 97.4879 12.8041C98.6453 12.2978 100.02 12.2978 101.177 12.8765C102.407 13.5275 103.203 14.685 103.637 15.9148C103.999 17.1446 104.143 18.4467 104.071 19.6765C103.926 21.1956 103.564 22.6424 102.696 23.8722C102.19 24.5956 101.539 25.1743 100.671 25.4637C99.2964 25.9701 97.8496 25.7531 96.6198 25.0297C96.2581 24.8126 95.8964 24.4509 95.607 24.1616C95.4624 24.5956 95.39 25.0297 95.2453 25.4637C94.5943 25.4637 94.0155 25.536 93.3645 25.3914C93.5815 24.3786 93.5815 23.2935 93.6539 22.2807C93.7262 18.5914 93.6539 14.902 93.6539 11.285C93.5815 9.83818 93.6539 8.39137 93.4368 7.0169C93.8709 6.87222 94.4496 6.72754 94.956 6.72754ZM99.7304 14.3233C99.1517 14.1786 98.573 14.1786 98.0666 14.2509C97.0538 14.3956 96.2581 15.119 95.607 15.8424C95.607 16.0595 95.607 16.3488 95.607 16.5658V22.4254C95.607 22.6424 95.7517 22.7871 95.8964 22.8595C96.9092 23.7999 98.356 24.2339 99.6581 23.9446C100.309 23.7999 100.888 23.3658 101.177 22.7871C101.684 21.9914 101.828 21.0509 101.901 20.1105C101.973 19.3871 102.045 18.6637 101.973 18.0126C101.973 17.2169 101.756 16.3488 101.322 15.6254C100.96 14.902 100.382 14.468 99.7304 14.3233ZM108.05 7.23392C108.411 7.08924 108.918 7.08924 109.279 7.30626C109.641 7.52328 109.93 7.88499 110.075 8.24669C110.292 9.11477 109.641 10.0552 108.773 10.1275C108.122 10.1999 107.399 9.83818 107.182 9.11477C106.892 8.46371 107.326 7.52328 108.05 7.23392ZM48.2241 8.75307C49.1645 8.10201 50.3219 7.59562 51.4794 7.59562C52.7092 7.59562 53.939 7.66796 55.0241 8.17435C55.4581 8.39137 55.8922 8.60839 56.3262 8.89775C56.0368 9.40413 55.6751 9.76584 55.3134 10.1999C54.8794 9.98286 54.4453 9.6935 53.939 9.47648C52.7815 9.04243 51.407 8.97009 50.2496 9.47648C49.2368 9.83818 48.4411 10.6339 47.9347 11.5743C47.6453 12.2978 47.356 13.0212 47.2113 13.7446C47.0666 14.468 47.0666 15.1914 46.9943 15.9148C46.9943 16.8552 46.9219 17.868 46.9943 18.8084C47.139 20.1829 47.6453 21.485 48.5134 22.4978C49.3092 23.4382 50.4666 23.9446 51.6964 24.0892C52.3475 24.0892 52.9262 24.0892 53.5773 23.9446C54.3007 23.7999 54.9517 23.3658 55.6751 23.0765C56.0368 23.4382 56.3985 23.9446 56.7602 24.3786C56.2539 24.668 55.7475 24.9573 55.1687 25.1743C53.7219 25.7531 52.0581 25.8254 50.539 25.6084C49.3815 25.3914 48.3687 24.8126 47.5007 24.0892C46.4879 23.2212 45.7645 22.0637 45.3305 20.8339C45.0411 19.9658 44.8964 19.0978 44.8241 18.2297C44.8241 17.5786 44.6794 16.9275 44.8241 16.2041C44.8241 14.9743 45.0411 13.6722 45.5475 12.5148C46.0539 11.068 46.9219 9.6935 48.2241 8.75307Z" fill="#FF5A00"/>
<path d="M10.4648 8.46445C10.6095 8.46445 10.7542 8.39211 10.8989 8.39211C11.6223 8.39211 12.3457 8.39211 13.0691 8.46445C13.2138 8.46445 13.2138 8.53679 13.2861 8.60913C14.3712 10.8517 15.4563 13.1666 16.6138 15.4815C16.8308 15.9879 17.0478 16.4219 17.3372 16.8559C17.5542 16.4942 17.7712 16.1325 17.9882 15.6985C19.218 13.2389 20.4478 10.8517 21.6776 8.39211C22.4734 8.39211 23.2691 8.31977 24.1372 8.46445C23.9925 8.97083 23.7031 9.33253 23.4861 9.76658C21.8946 12.8772 20.2308 15.9879 18.567 19.0985C18.4946 19.2432 18.4946 19.3155 18.4946 19.4602C18.4946 21.7027 18.4946 23.9453 18.4946 26.1155C17.6989 26.1155 16.9031 26.1155 16.1074 26.1155C16.1074 23.9453 16.1074 21.7751 16.1074 19.6049C16.1074 19.3879 16.1074 19.0985 15.9627 18.8815C14.4436 16.0602 12.9968 13.2389 11.4776 10.3453C11.1882 9.76658 10.8265 9.11551 10.4648 8.46445Z" fill="#FFFEFE"/>
<path d="M140.966 9.47611C141.618 9.25909 142.269 9.11441 142.992 8.96973C142.847 10.1995 142.775 11.4293 142.775 12.7314C143.788 12.7314 144.873 12.7314 145.886 12.8038C145.741 13.3102 145.524 13.7442 145.307 14.1782C144.439 14.1782 143.571 14.1782 142.63 14.1782C142.63 15.3357 142.63 16.4931 142.63 17.6506C142.63 18.5187 142.703 19.4591 142.63 20.3995C142.63 21.4123 142.63 22.4974 142.703 23.5102C142.703 23.9442 143.137 24.2336 143.498 24.3782C144.149 24.5229 144.8 24.4506 145.452 24.3059C145.596 24.6676 145.669 25.1016 145.669 25.4633C145.09 25.7527 144.439 25.825 143.788 25.8974C142.92 25.8974 141.907 25.7527 141.256 25.1016C140.749 24.5953 140.749 23.7995 140.677 23.1485C140.605 21.7016 140.677 20.1825 140.605 18.7357C140.605 17.2165 140.605 15.7697 140.605 14.2506C140.026 14.2506 139.447 14.2506 138.941 14.2506C138.941 13.7442 138.941 13.2378 138.941 12.8038C139.52 12.8038 140.026 12.8038 140.605 12.8038C140.822 11.6463 140.822 10.4889 140.966 9.47611ZM64.2856 12.3697C64.792 12.3697 65.3707 12.3697 65.8771 12.5144C67.0345 12.8761 68.0473 13.7442 68.626 14.757C69.1324 15.6974 69.4941 16.7102 69.5664 17.7953C69.6388 19.2421 69.7111 20.6889 69.2047 22.0633C68.7707 23.3655 67.9026 24.5229 66.6728 25.174C65.443 25.825 63.9962 25.8974 62.6941 25.5357C61.5367 25.2463 60.5239 24.4506 59.8005 23.4378C59.0771 22.3527 58.7877 21.0506 58.7877 19.6761C58.7877 18.4463 58.7154 17.1442 59.1494 15.9144C59.5111 14.757 60.3069 13.6719 61.392 12.9485C61.8984 12.6591 62.4047 12.3697 62.9835 12.2974C63.4175 12.3697 63.8516 12.3697 64.2856 12.3697ZM63.2728 14.0336C62.6218 14.1782 61.9707 14.6123 61.609 15.191C61.1026 16.0591 60.9579 17.0719 60.9579 18.0846C60.8856 18.808 60.9579 19.5314 61.0303 20.2548C61.175 21.1229 61.3196 22.0633 61.7537 22.8591C62.1877 23.7272 63.1282 24.0889 64.0686 24.1612C64.9367 24.2336 65.8771 24.0165 66.5282 23.2931C67.0345 22.7144 67.3239 22.0633 67.3962 21.2676C67.5409 20.3272 67.5409 19.3867 67.4686 18.5187C67.4686 17.5782 67.3239 16.5655 66.9622 15.625C66.7452 15.0463 66.3111 14.6123 65.8047 14.3229C65.009 13.8889 64.1409 13.8165 63.2728 14.0336ZM73.1111 12.8038C73.6899 12.5867 74.2686 12.4421 74.9196 12.3697C75.1367 12.9485 75.2813 13.5272 75.3537 14.1782C75.7877 13.9612 76.0771 13.5995 76.5111 13.3825C77.3792 12.7314 78.4643 12.3697 79.5494 12.3697C79.7665 12.3697 80.0558 12.4421 80.2728 12.5867C80.6345 12.8038 80.9962 12.9484 81.3579 13.2378C81.6473 13.5272 81.8643 13.9612 82.0813 14.3229C82.5877 14.1059 82.9494 13.6719 83.3835 13.3825C84.1069 12.8761 84.975 12.4421 85.9877 12.3697C86.8558 12.2974 87.7239 12.5867 88.375 13.1655C88.6643 13.4548 88.9537 13.7442 89.0984 14.1059C89.243 14.4676 89.3154 14.8293 89.3154 15.2633C89.4601 17.2889 89.3877 19.3867 89.4601 21.4123C89.4601 22.7867 89.4601 24.1612 89.4601 25.5357C88.809 25.5357 88.0856 25.5357 87.4345 25.5357C87.4345 23.5102 87.4345 21.4123 87.4345 19.3867C87.4345 18.0846 87.4345 16.7825 87.3622 15.408C87.2898 14.974 87.0728 14.6123 86.7111 14.3229C86.3494 14.1059 85.843 14.1059 85.3367 14.1059C84.5409 14.1782 83.8899 14.6846 83.2388 15.191C82.9494 15.408 82.6601 15.6974 82.3707 15.9144C82.2984 15.9867 82.2984 16.1314 82.2984 16.2038C82.2984 19.3144 82.2984 22.3527 82.2984 25.4633C81.6473 25.4633 80.9239 25.4633 80.2728 25.4633V18.2293C80.2728 17.6506 80.2728 17.0719 80.2728 16.4931C80.2728 15.9144 80.2728 15.2633 80.0558 14.757C79.6218 14.1782 78.826 14.0336 78.175 14.2506C77.1622 14.4676 76.2941 15.1187 75.4984 15.8421C75.3537 15.9144 75.3537 16.0591 75.3537 16.2038C75.3537 19.3144 75.3537 22.425 75.3537 25.5357C74.775 25.5357 74.1962 25.5357 73.6175 25.5357C73.5452 22.3527 73.6175 19.1697 73.4728 15.9867C73.4728 15.2633 73.4728 14.5399 73.3281 13.8165C73.2558 13.4548 73.1111 13.0931 73.1111 12.8038ZM107.618 12.7314C108.269 12.6591 108.92 12.5144 109.571 12.3697C109.643 14.1782 109.643 15.9867 109.643 17.7229C109.643 20.3272 109.643 22.8591 109.643 25.4633C108.992 25.4633 108.269 25.4633 107.618 25.4633C107.618 21.774 107.618 18.0846 107.618 14.3953C107.618 13.8889 107.545 13.2378 107.618 12.7314ZM133.588 12.4421C134.962 12.6591 136.12 13.9612 136.192 15.408C136.264 17.5059 136.192 19.6761 136.192 21.774V22.425C136.192 22.8591 136.192 23.2931 136.337 23.6548C136.409 24.0889 136.843 24.3059 137.132 24.5229C136.843 24.8846 136.626 25.391 136.264 25.6804C136.047 25.8974 135.758 25.6804 135.613 25.5357C135.107 25.174 134.818 24.6676 134.528 24.0889C134.094 24.3059 133.805 24.7399 133.298 24.957C132.575 25.4633 131.707 25.6804 130.766 25.6804C129.971 25.6804 129.175 25.5357 128.452 25.174C127.294 24.5229 126.643 23.2208 126.715 21.9187C126.715 20.6889 127.366 19.4591 128.307 18.7357C129.464 17.8676 130.983 17.5782 132.43 17.4336C133.081 17.3612 133.732 17.3612 134.456 17.3612C134.456 16.7102 134.456 16.0591 134.311 15.408C134.239 14.9016 133.949 14.3229 133.443 14.0336C132.864 13.7442 132.141 13.6719 131.49 13.8165C130.26 13.9612 129.103 14.4676 128.09 15.191C127.8 14.8293 127.511 14.4676 127.294 14.0336C127.149 13.8165 127.366 13.6719 127.511 13.5995C128.886 12.8761 130.332 12.225 131.924 12.225H132.575C132.937 12.3697 133.226 12.3697 133.588 12.4421ZM132.72 18.8804C132.069 18.9527 131.49 18.9527 130.839 19.0974C130.115 19.3144 129.464 19.7485 129.03 20.3995C128.813 20.7612 128.813 21.1953 128.813 21.6293C128.813 22.0633 128.741 22.5697 128.958 23.0038C129.103 23.4378 129.464 23.8719 129.898 24.0165C130.405 24.2336 130.983 24.2336 131.562 24.2336C132.213 24.1612 132.792 23.7995 133.298 23.3655C133.732 23.0038 134.166 22.5697 134.166 21.991C134.239 20.9782 134.239 19.8931 134.239 18.8804C133.732 18.9527 133.226 18.808 132.72 18.8804ZM154.711 12.5144C155.869 12.8038 156.881 13.5272 157.605 14.4676C158.183 15.2633 158.545 16.1314 158.69 17.0719C158.835 17.9399 158.907 18.8804 158.835 19.8208C158.835 21.3399 158.328 22.7867 157.46 23.9442C156.737 24.8846 155.579 25.4633 154.494 25.6804C153.12 25.8974 151.6 25.6804 150.371 24.8123C149.358 24.0889 148.707 22.9314 148.345 21.7016C148.128 21.0506 148.128 20.4719 148.056 19.8208C148.056 18.7357 148.056 17.7229 148.2 16.6378C148.49 15.4804 149.069 14.3229 149.937 13.4548C150.588 12.8038 151.456 12.4421 152.324 12.2974C153.192 12.2974 153.988 12.3697 154.711 12.5144ZM152.541 14.0336C151.6 14.1782 150.805 14.9016 150.515 15.7697C150.154 16.7102 150.154 17.7229 150.154 18.6633C150.154 19.6038 150.154 20.5442 150.371 21.4123C150.515 22.0633 150.66 22.6421 151.094 23.1485C151.456 23.6548 152.107 23.9442 152.686 24.0165C152.903 24.0889 153.192 24.0889 153.409 24.0889H153.626H153.843C154.349 24.0165 154.783 23.8719 155.218 23.6548C155.724 23.3655 156.086 22.8591 156.303 22.2804C156.52 21.6293 156.592 20.9059 156.664 20.2548C156.664 19.4591 156.737 18.6633 156.664 17.7953C156.592 16.9272 156.52 16.0591 156.086 15.3357C155.724 14.757 155.218 14.3229 154.566 14.0336C153.915 13.8889 153.192 13.8889 152.541 14.0336ZM162.307 12.8761C162.958 12.7314 163.537 12.5144 164.115 12.3697C164.477 13.0208 164.477 13.7442 164.549 14.3953C164.839 14.1782 165.128 13.8889 165.418 13.5995C166.286 12.7314 167.588 12.225 168.818 12.4421V12.5867C168.528 13.1655 168.383 13.8165 168.094 14.4676C168.094 14.6123 167.877 14.5399 167.805 14.5399C167.298 14.5399 166.647 14.5399 166.213 14.8293C165.707 15.1187 165.345 15.4804 164.983 15.9144C164.622 16.3485 164.694 16.9272 164.694 17.4336C164.694 18.157 164.622 18.8804 164.694 19.6038C164.694 21.557 164.694 23.5825 164.694 25.5357C164.043 25.5357 163.32 25.5357 162.669 25.5357C162.669 23.3655 162.669 21.1229 162.669 18.9527C162.669 17.4336 162.669 15.9867 162.596 14.4676C162.524 13.8889 162.379 13.3825 162.307 12.8761ZM113.549 12.8761C114.128 12.6591 114.779 12.4421 115.358 12.4421C115.575 13.0208 115.72 13.6719 115.792 14.2506C116.298 13.8889 116.805 13.4548 117.311 13.1655C118.396 12.5144 119.698 12.0804 120.856 12.5144C121.579 12.7314 122.23 13.1655 122.664 13.8165C123.026 14.2506 123.098 14.9016 123.171 15.408C123.315 17.4336 123.243 19.3867 123.243 21.4123C123.243 22.7867 123.243 24.0889 123.243 25.391C122.592 25.391 121.869 25.391 121.218 25.391C121.218 23.2208 121.145 20.9782 121.145 18.808C121.145 17.5782 121.145 16.3485 121 15.1187C120.783 14.5399 120.277 14.0336 119.626 14.0336C119.192 14.0336 118.686 14.0336 118.252 14.1782C117.311 14.5399 116.443 15.1187 115.647 15.7697C115.647 18.9527 115.647 22.208 115.647 25.391C115.069 25.391 114.49 25.391 113.911 25.391C113.911 23.5825 113.839 21.774 113.839 19.8931C113.839 18.0123 113.839 16.1314 113.694 14.2506C113.839 13.8889 113.694 13.3825 113.549 12.8761Z" fill="#FF5A00"/>
</g>
<defs>
<clipPath id="clip0_20708_11611">
<rect width="168.264" height="34" fill="white" transform="translate(0.478516)"/>
</clipPath>
</defs>
</svg>
